<svg xmlns="http://www.w3.org/2000/svg" version="1.1" xmlns:xlink="http://www.w3.org/1999/xlink" xmlns:svgjs="http://svgjs.com/svgjs" width="1000" height="1000"><rect width="1000" height="1000" rx="200" ry="200" fill="#fff8e5"></rect><g transform="matrix(9.75609756097561,0,0,9.75609756097561,102.60407592029105,331.1946281340064)"><svg xmlns="http://www.w3.org/2000/svg" version="1.1" xmlns:xlink="http://www.w3.org/1999/xlink" xmlns:svgjs="http://svgjs.com/svgjs" width="82" height="35"><svg width="82" height="35" viewBox="0 0 82 35" fill="none" xmlns="http://www.w3.org/2000/svg">
<path d="M81.4052 0.719999V34.56H71.9972V20.976H60.5252V34.56H51.1172V0.719999H60.5252V13.44H71.9972V0.719999H81.4052Z" fill="#101010"></path>
<path d="M21.1194 28.8V21.024L35.8554 0H46.1754V20.64H49.8714V28.8H46.1754V34.56H36.6714V28.8H21.1194ZM37.3914 10.608L30.7674 20.64H37.3914V10.608Z" fill="#BA68C8"></path>
<path d="M22.944 0.719999V8.208H9.408V14.16H19.392V21.312H9.408V34.56H0V0.719999H22.944Z" fill="#101010"></path>
</svg></svg></g></svg>